<svg width="439" height="77" viewBox="0 0 439 77" fill="none" xmlns="http://www.w3.org/2000/svg">
<path d="M228.971 68.2484C228.041 68.2484 227.276 67.9798 226.677 67.4424C226.098 66.8844 225.809 66.2024 225.809 65.3964C225.809 64.5697 226.098 63.8774 226.677 63.3194C227.276 62.7614 228.041 62.4824 228.971 62.4824C229.88 62.4824 230.624 62.7614 231.203 63.3194C231.802 63.8774 232.102 64.5697 232.102 65.3964C232.102 66.2024 231.802 66.8844 231.203 67.4424C230.624 67.9798 229.88 68.2484 228.971 68.2484Z" fill="white"/>
<path d="M223.537 63.5053V68.0003H220.84C218.918 68.0003 217.42 67.5353 216.345 66.6053C215.27 65.6547 214.733 64.115 214.733 61.9863V55.1043H212.625V50.7023H214.733V46.4863H220.034V50.7023H223.506V55.1043H220.034V62.0483C220.034 62.565 220.158 62.937 220.406 63.1643C220.654 63.3917 221.067 63.5053 221.646 63.5053H223.537Z" fill="white"/>
<path d="M207.42 48.9039C206.49 48.9039 205.725 48.6353 205.126 48.0979C204.547 47.5399 204.258 46.8579 204.258 46.0519C204.258 45.2253 204.547 44.5433 205.126 44.0059C205.725 43.4479 206.49 43.1689 207.42 43.1689C208.329 43.1689 209.073 43.4479 209.652 44.0059C210.251 44.5433 210.551 45.2253 210.551 46.0519C210.551 46.8579 210.251 47.5399 209.652 48.0979C209.073 48.6353 208.329 48.9039 207.42 48.9039ZM210.055 50.7019V67.9999H204.754V50.7019H210.055Z" fill="white"/>
<path d="M200.912 45.0596V67.9996H195.611V45.0596H200.912Z" fill="white"/>
<path d="M184.141 50.4853V54.8873H191.24V58.9793H184.141V63.7533H192.17V68.0003H178.84V46.2383H192.17V50.4853H184.141Z" fill="white"/>
<path d="M157.802 50.4541C159.021 50.4541 160.085 50.7021 160.995 51.1981C161.925 51.6941 162.638 52.3451 163.134 53.1511V50.7021H168.435V67.9691C168.435 69.5604 168.114 70.9968 167.474 72.2781C166.854 73.5801 165.893 74.6134 164.591 75.3781C163.309 76.1428 161.708 76.5251 159.786 76.5251C157.223 76.5251 155.146 75.9154 153.555 74.6961C151.963 73.4974 151.054 71.8648 150.827 69.7981H156.066C156.231 70.4594 156.624 70.9761 157.244 71.3481C157.864 71.7408 158.628 71.9371 159.538 71.9371C160.633 71.9371 161.501 71.6168 162.142 70.9761C162.803 70.3561 163.134 69.3538 163.134 67.9691V65.5201C162.617 66.3261 161.904 66.9874 160.995 67.5041C160.085 68.0001 159.021 68.2481 157.802 68.2481C156.376 68.2481 155.084 67.8864 153.927 67.1631C152.769 66.4191 151.85 65.3754 151.168 64.0321C150.506 62.6681 150.176 61.0974 150.176 59.3201C150.176 57.5428 150.506 55.9824 151.168 54.6391C151.85 53.2958 152.769 52.2624 153.927 51.5391C155.084 50.8158 156.376 50.4541 157.802 50.4541ZM163.134 59.3511C163.134 58.0284 162.762 56.9848 162.018 56.2201C161.294 55.4554 160.406 55.0731 159.352 55.0731C158.298 55.0731 157.399 55.4554 156.655 56.2201C155.931 56.9641 155.57 57.9974 155.57 59.3201C155.57 60.6428 155.931 61.6968 156.655 62.4821C157.399 63.2468 158.298 63.6291 159.352 63.6291C160.406 63.6291 161.294 63.2468 162.018 62.4821C162.762 61.7174 163.134 60.6738 163.134 59.3511Z" fill="white"/>
<path d="M140.882 50.5156C142.907 50.5156 144.519 51.177 145.718 52.4996C146.937 53.8016 147.547 55.5996 147.547 57.8936V67.9996H142.277V58.6066C142.277 57.4493 141.977 56.5503 141.378 55.9096C140.778 55.269 139.972 54.9486 138.96 54.9486C137.947 54.9486 137.141 55.269 136.542 55.9096C135.942 56.5503 135.643 57.4493 135.643 58.6066V67.9996H130.342V50.7016H135.643V52.9956C136.18 52.231 136.903 51.6316 137.813 51.1976C138.722 50.743 139.745 50.5156 140.882 50.5156Z" fill="white"/>
<path d="M123.865 48.9039C122.935 48.9039 122.17 48.6353 121.571 48.0979C120.992 47.5399 120.703 46.8579 120.703 46.0519C120.703 45.2253 120.992 44.5433 121.571 44.0059C122.17 43.4479 122.935 43.1689 123.865 43.1689C124.774 43.1689 125.518 43.4479 126.097 44.0059C126.696 44.5433 126.996 45.2253 126.996 46.0519C126.996 46.8579 126.696 47.5399 126.097 48.0979C125.518 48.6353 124.774 48.9039 123.865 48.9039ZM126.5 50.7019V67.9999H121.199V50.7019H126.5Z" fill="white"/>
<path d="M101.375 59.3511C101.375 57.5531 101.737 55.9824 102.46 54.6391C103.204 53.2958 104.227 52.2624 105.529 51.5391C106.852 50.8158 108.36 50.4541 110.055 50.4541C112.225 50.4541 114.033 51.0224 115.48 52.1591C116.947 53.2958 117.908 54.8974 118.363 56.9641H112.721C112.246 55.6414 111.326 54.9801 109.962 54.9801C108.991 54.9801 108.216 55.3624 107.637 56.1271C107.058 56.8711 106.769 57.9458 106.769 59.3511C106.769 60.7564 107.058 61.8414 107.637 62.6061C108.216 63.3501 108.991 63.7221 109.962 63.7221C111.326 63.7221 112.246 63.0608 112.721 61.7381H118.363C117.908 63.7634 116.947 65.3548 115.48 66.5121C114.013 67.6694 112.204 68.2481 110.055 68.2481C108.36 68.2481 106.852 67.8864 105.529 67.1631C104.227 66.4398 103.204 65.4064 102.46 64.0631C101.737 62.7198 101.375 61.1491 101.375 59.3511Z" fill="white"/>
<path d="M92.1799 68.2481C90.6712 68.2481 89.3279 67.9898 88.1499 67.4731C86.9719 66.9564 86.0419 66.2538 85.3599 65.3651C84.6779 64.4558 84.2956 63.4431 84.2129 62.3271H89.4519C89.5139 62.9264 89.7929 63.4121 90.2889 63.7841C90.7849 64.1561 91.3946 64.3421 92.1179 64.3421C92.7792 64.3421 93.2856 64.2181 93.6369 63.9701C94.0089 63.7014 94.1949 63.3604 94.1949 62.9471C94.1949 62.4511 93.9366 62.0894 93.4199 61.8621C92.9032 61.6141 92.0662 61.3454 90.9089 61.0561C89.6689 60.7668 88.6356 60.4671 87.8089 60.1571C86.9822 59.8264 86.2692 59.3201 85.6699 58.6381C85.0706 57.9354 84.7709 56.9951 84.7709 55.8171C84.7709 54.8251 85.0396 53.9261 85.5769 53.1201C86.1349 52.2934 86.9409 51.6424 87.9949 51.1671C89.0696 50.6918 90.3406 50.4541 91.8079 50.4541C93.9779 50.4541 95.6829 50.9914 96.9229 52.0661C98.1836 53.1408 98.9069 54.5668 99.0929 56.3441H94.1949C94.1122 55.7448 93.8436 55.2694 93.3889 54.9181C92.9549 54.5668 92.3762 54.3911 91.6529 54.3911C91.0329 54.3911 90.5576 54.5151 90.2269 54.7631C89.8962 54.9904 89.7309 55.3108 89.7309 55.7241C89.7309 56.2201 89.9892 56.5921 90.5059 56.8401C91.0432 57.0881 91.8699 57.3361 92.9859 57.5841C94.2672 57.9148 95.3109 58.2454 96.1169 58.5761C96.9229 58.8861 97.6256 59.4028 98.2249 60.1261C98.8449 60.8288 99.1652 61.7794 99.1859 62.9781C99.1859 63.9908 98.8966 64.9001 98.3179 65.7061C97.7599 66.4914 96.9436 67.1114 95.8689 67.5661C94.8149 68.0208 93.5852 68.2481 92.1799 68.2481Z" fill="white"/>
<path d="M78.6679 48.9039C77.7379 48.9039 76.9732 48.6353 76.3739 48.0979C75.7952 47.5399 75.5059 46.8579 75.5059 46.0519C75.5059 45.2253 75.7952 44.5433 76.3739 44.0059C76.9732 43.4479 77.7379 43.1689 78.6679 43.1689C79.5772 43.1689 80.3212 43.4479 80.8999 44.0059C81.4992 44.5433 81.7989 45.2253 81.7989 46.0519C81.7989 46.8579 81.4992 47.5399 80.8999 48.0979C80.3212 48.6353 79.5772 48.9039 78.6679 48.9039ZM81.3029 50.7019V67.9999H76.0019V50.7019H81.3029Z" fill="white"/>
<path d="M60.2619 53.1511C60.7786 52.3451 61.4916 51.6941 62.4009 51.1981C63.3103 50.7021 64.3746 50.4541 65.5939 50.4541C67.0199 50.4541 68.3116 50.8158 69.4689 51.5391C70.6263 52.2624 71.5356 53.2958 72.1969 54.6391C72.8789 55.9824 73.2199 57.5428 73.2199 59.3201C73.2199 61.0974 72.8789 62.6681 72.1969 64.0321C71.5356 65.3754 70.6263 66.4191 69.4689 67.1631C68.3116 67.8864 67.0199 68.2481 65.5939 68.2481C64.3953 68.2481 63.3309 68.0001 62.4009 67.5041C61.4916 67.0081 60.7786 66.3674 60.2619 65.5821V76.2461H54.9609V50.7021H60.2619V53.1511ZM67.8259 59.3201C67.8259 57.9974 67.4539 56.9641 66.7099 56.2201C65.9866 55.4554 65.0876 55.0731 64.0129 55.0731C62.9589 55.0731 62.0599 55.4554 61.3159 56.2201C60.5926 56.9848 60.2309 58.0284 60.2309 59.3511C60.2309 60.6738 60.5926 61.7174 61.3159 62.4821C62.0599 63.2468 62.9589 63.6291 64.0129 63.6291C65.0669 63.6291 65.9659 63.2468 66.7099 62.4821C67.4539 61.6968 67.8259 60.6428 67.8259 59.3201Z" fill="white"/>
<path d="M48.4843 48.9039C47.5543 48.9039 46.7896 48.6353 46.1903 48.0979C45.6116 47.5399 45.3223 46.8579 45.3223 46.0519C45.3223 45.2253 45.6116 44.5433 46.1903 44.0059C46.7896 43.4479 47.5543 43.1689 48.4843 43.1689C49.3936 43.1689 50.1376 43.4479 50.7163 44.0059C51.3156 44.5433 51.6153 45.2253 51.6153 46.0519C51.6153 46.8579 51.3156 47.5399 50.7163 48.0979C50.1376 48.6353 49.3936 48.9039 48.4843 48.9039ZM51.1193 50.7019V67.9999H45.8183V50.7019H51.1193Z" fill="white"/>
<path d="M23.7246 59.3196C23.7246 57.5422 24.0553 55.9819 24.7166 54.6386C25.3986 53.2952 26.3183 52.2619 27.4756 51.5386C28.6329 50.8152 29.9246 50.4536 31.3506 50.4536C32.4873 50.4536 33.5206 50.6912 34.4506 51.1666C35.4013 51.6419 36.1453 52.2826 36.6826 53.0886V45.0596H41.9836V67.9996H36.6826V65.5196C36.1866 66.3462 35.4736 67.0076 34.5436 67.5036C33.6343 67.9996 32.5699 68.2476 31.3506 68.2476C29.9246 68.2476 28.6329 67.8859 27.4756 67.1626C26.3183 66.4186 25.3986 65.3749 24.7166 64.0316C24.0553 62.6676 23.7246 61.0969 23.7246 59.3196ZM36.6826 59.3506C36.6826 58.0279 36.3106 56.9842 35.5666 56.2196C34.8433 55.4549 33.9546 55.0726 32.9006 55.0726C31.8466 55.0726 30.9476 55.4549 30.2036 56.2196C29.4803 56.9636 29.1186 57.9969 29.1186 59.3196C29.1186 60.6422 29.4803 61.6962 30.2036 62.4816C30.9476 63.2462 31.8466 63.6286 32.9006 63.6286C33.9546 63.6286 34.8433 63.2462 35.5666 62.4816C36.3106 61.7169 36.6826 60.6732 36.6826 59.3506Z" fill="white"/>
<path d="M15.4691 64.1563H7.34709L6.04509 68.0003H0.496094L8.37009 46.2383H14.5081L22.3821 68.0003H16.7711L15.4691 64.1563ZM14.1051 60.0643L11.4081 52.0973L8.74209 60.0643H14.1051Z" fill="white"/>
<path d="M438.691 20.5053V25.0003H435.994C434.072 25.0003 432.574 24.5353 431.499 23.6053C430.425 22.6547 429.887 21.115 429.887 18.9863V12.1043H427.779V7.70233H429.887V3.48633H435.188V7.70233H438.66V12.1043H435.188V19.0483C435.188 19.565 435.312 19.937 435.56 20.1643C435.808 20.3917 436.222 20.5053 436.8 20.5053H438.691Z" fill="white"/>
<path d="M426.253 16.0721C426.253 16.5681 426.222 17.0848 426.16 17.6221H414.163C414.245 18.6968 414.586 19.5234 415.186 20.1021C415.806 20.6601 416.56 20.9391 417.449 20.9391C418.771 20.9391 419.691 20.3811 420.208 19.2651H425.85C425.56 20.4018 425.033 21.4248 424.269 22.3341C423.525 23.2434 422.584 23.9564 421.448 24.4731C420.311 24.9898 419.04 25.2481 417.635 25.2481C415.94 25.2481 414.431 24.8864 413.109 24.1631C411.786 23.4398 410.753 22.4064 410.009 21.0631C409.265 19.7198 408.893 18.1491 408.893 16.3511C408.893 14.5531 409.254 12.9824 409.978 11.6391C410.722 10.2958 411.755 9.26244 413.078 8.5391C414.4 7.81577 415.919 7.4541 417.635 7.4541C419.309 7.4541 420.797 7.80543 422.099 8.5081C423.401 9.21077 424.413 10.2131 425.137 11.5151C425.881 12.8171 426.253 14.3361 426.253 16.0721ZM420.828 14.6771C420.828 13.7678 420.518 13.0444 419.898 12.5071C419.278 11.9698 418.503 11.7011 417.573 11.7011C416.684 11.7011 415.93 11.9594 415.31 12.4761C414.71 12.9928 414.338 13.7264 414.194 14.6771H420.828Z" fill="white"/>
<path d="M399.203 7.51562C401.352 7.51562 403.057 8.16662 404.318 9.46862C405.599 10.7706 406.24 12.579 406.24 14.8936V24.9996H400.97V15.6066C400.97 14.4906 400.67 13.633 400.071 13.0336C399.492 12.4136 398.686 12.1036 397.653 12.1036C396.62 12.1036 395.803 12.4136 395.204 13.0336C394.625 13.633 394.336 14.4906 394.336 15.6066V24.9996H389.066V15.6066C389.066 14.4906 388.766 13.633 388.167 13.0336C387.588 12.4136 386.782 12.1036 385.749 12.1036C384.716 12.1036 383.899 12.4136 383.3 13.0336C382.721 13.633 382.432 14.4906 382.432 15.6066V24.9996H377.131V7.70162H382.432V9.87162C382.969 9.14829 383.672 8.57996 384.54 8.16662C385.408 7.73262 386.39 7.51562 387.485 7.51562C388.787 7.51562 389.944 7.79462 390.957 8.35262C391.99 8.91062 392.796 9.70629 393.375 10.7396C393.974 9.78896 394.791 9.01396 395.824 8.41462C396.857 7.81529 397.984 7.51562 399.203 7.51562Z" fill="white"/>
<path d="M367.821 21.1563H359.699L358.397 25.0003H352.848L360.722 3.23828H366.86L374.734 25.0003H369.123L367.821 21.1563ZM366.457 17.0643L363.76 9.09728L361.094 17.0643H366.457Z" fill="white"/>
<path d="M344.752 20.5053V25.0003H342.055C340.133 25.0003 338.635 24.5353 337.56 23.6053C336.485 22.6547 335.948 21.115 335.948 18.9863V12.1043H333.84V7.70233H335.948V3.48633H341.249V7.70233H344.721V12.1043H341.249V19.0483C341.249 19.565 341.373 19.937 341.621 20.1643C341.869 20.3917 342.282 20.5053 342.861 20.5053H344.752Z" fill="white"/>
<path d="M328.635 5.90395C327.705 5.90395 326.94 5.63528 326.341 5.09795C325.762 4.53995 325.473 3.85795 325.473 3.05195C325.473 2.22528 325.762 1.54328 326.341 1.00595C326.94 0.447945 327.705 0.168945 328.635 0.168945C329.544 0.168945 330.288 0.447945 330.867 1.00595C331.466 1.54328 331.766 2.22528 331.766 3.05195C331.766 3.85795 331.466 4.53995 330.867 5.09795C330.288 5.63528 329.544 5.90395 328.635 5.90395ZM331.27 7.70195V24.9999H325.969V7.70195H331.27Z" fill="white"/>
<path d="M314.771 25.2167C313.18 25.2167 311.754 24.9584 310.493 24.4417C309.233 23.9251 308.22 23.1604 307.455 22.1477C306.711 21.1351 306.319 19.9157 306.277 18.4897H311.919C312.002 19.2957 312.281 19.9157 312.756 20.3497C313.232 20.7631 313.852 20.9697 314.616 20.9697C315.402 20.9697 316.022 20.7941 316.476 20.4427C316.931 20.0707 317.158 19.5644 317.158 18.9237C317.158 18.3864 316.972 17.9421 316.6 17.5907C316.249 17.2394 315.805 16.9501 315.267 16.7227C314.751 16.4954 314.007 16.2371 313.035 15.9477C311.63 15.5137 310.483 15.0797 309.594 14.6457C308.706 14.2117 307.941 13.5711 307.3 12.7237C306.66 11.8764 306.339 10.7707 306.339 9.40673C306.339 7.3814 307.073 5.8004 308.54 4.66373C310.008 3.5064 311.919 2.92773 314.275 2.92773C316.673 2.92773 318.605 3.5064 320.072 4.66373C321.54 5.8004 322.325 7.39174 322.428 9.43773H316.693C316.652 8.73507 316.394 8.1874 315.918 7.79473C315.443 7.3814 314.833 7.17473 314.089 7.17473C313.449 7.17473 312.932 7.3504 312.539 7.70173C312.147 8.0324 311.95 8.51807 311.95 9.15873C311.95 9.8614 312.281 10.4091 312.942 10.8017C313.604 11.1944 314.637 11.6181 316.042 12.0727C317.448 12.5481 318.584 13.0027 319.452 13.4367C320.341 13.8707 321.106 14.5011 321.746 15.3277C322.387 16.1544 322.707 17.2187 322.707 18.5207C322.707 19.7607 322.387 20.8871 321.746 21.8997C321.126 22.9124 320.217 23.7184 319.018 24.3177C317.82 24.9171 316.404 25.2167 314.771 25.2167Z" fill="white"/>
<path d="M292.369 10.5846C292.989 9.63396 293.764 8.88996 294.694 8.35262C295.624 7.79462 296.658 7.51562 297.794 7.51562V13.1266H296.337C295.015 13.1266 294.023 13.416 293.361 13.9946C292.7 14.5526 292.369 15.5446 292.369 16.9706V24.9996H287.068V7.70162H292.369V10.5846Z" fill="white"/>
<path d="M275.203 25.2481C273.509 25.2481 271.979 24.8864 270.615 24.1631C269.272 23.4398 268.208 22.4064 267.422 21.0631C266.658 19.7198 266.275 18.1491 266.275 16.3511C266.275 14.5738 266.668 13.0134 267.453 11.6701C268.239 10.3061 269.313 9.26244 270.677 8.5391C272.041 7.81577 273.571 7.4541 275.265 7.4541C276.96 7.4541 278.489 7.81577 279.853 8.5391C281.217 9.26244 282.292 10.3061 283.077 11.6701C283.863 13.0134 284.255 14.5738 284.255 16.3511C284.255 18.1284 283.852 19.6991 283.046 21.0631C282.261 22.4064 281.176 23.4398 279.791 24.1631C278.427 24.8864 276.898 25.2481 275.203 25.2481ZM275.203 20.6601C276.216 20.6601 277.074 20.2881 277.776 19.5441C278.5 18.8001 278.861 17.7358 278.861 16.3511C278.861 14.9664 278.51 13.9021 277.807 13.1581C277.125 12.4141 276.278 12.0421 275.265 12.0421C274.232 12.0421 273.374 12.4141 272.692 13.1581C272.01 13.8814 271.669 14.9458 271.669 16.3511C271.669 17.7358 272 18.8001 272.661 19.5441C273.343 20.2881 274.191 20.6601 275.203 20.6601Z" fill="white"/>
<path d="M263.488 2.05957V24.9996H258.188V2.05957H263.488Z" fill="white"/>
<path d="M246.323 25.2481C244.628 25.2481 243.099 24.8864 241.735 24.1631C240.391 23.4398 239.327 22.4064 238.542 21.0631C237.777 19.7198 237.395 18.1491 237.395 16.3511C237.395 14.5738 237.787 13.0134 238.573 11.6701C239.358 10.3061 240.433 9.26244 241.797 8.5391C243.161 7.81577 244.69 7.4541 246.385 7.4541C248.079 7.4541 249.609 7.81577 250.973 8.5391C252.337 9.26244 253.411 10.3061 254.197 11.6701C254.982 13.0134 255.375 14.5738 255.375 16.3511C255.375 18.1284 254.972 19.6991 254.166 21.0631C253.38 22.4064 252.295 23.4398 250.911 24.1631C249.547 24.8864 248.017 25.2481 246.323 25.2481ZM246.323 20.6601C247.335 20.6601 248.193 20.2881 248.896 19.5441C249.619 18.8001 249.981 17.7358 249.981 16.3511C249.981 14.9664 249.629 13.9021 248.927 13.1581C248.245 12.4141 247.397 12.0421 246.385 12.0421C245.351 12.0421 244.494 12.4141 243.812 13.1581C243.13 13.8814 242.789 14.9458 242.789 16.3511C242.789 17.7358 243.119 18.8001 243.781 19.5441C244.463 20.2881 245.31 20.6601 246.323 20.6601Z" fill="white"/>
<path d="M224.079 3.23828C226.373 3.23828 228.377 3.69295 230.093 4.60228C231.808 5.51161 233.131 6.79295 234.061 8.44628C235.011 10.0789 235.487 11.9699 235.487 14.1193C235.487 16.2479 235.011 18.1389 234.061 19.7923C233.131 21.4456 231.798 22.7269 230.062 23.6363C228.346 24.5456 226.352 25.0003 224.079 25.0003H215.926V3.23828H224.079ZM223.738 20.4123C225.742 20.4123 227.303 19.8646 228.419 18.7693C229.535 17.6739 230.093 16.1239 230.093 14.1193C230.093 12.1146 229.535 10.5543 228.419 9.43828C227.303 8.32228 225.742 7.76428 223.738 7.76428H221.227V20.4123H223.738Z" fill="white"/>
<path d="M198.611 7.51562C200.76 7.51562 202.465 8.16662 203.726 9.46862C205.007 10.7706 205.648 12.579 205.648 14.8936V24.9996H200.378V15.6066C200.378 14.4906 200.078 13.633 199.479 13.0336C198.9 12.4136 198.094 12.1036 197.061 12.1036C196.028 12.1036 195.211 12.4136 194.612 13.0336C194.033 13.633 193.744 14.4906 193.744 15.6066V24.9996H188.474V15.6066C188.474 14.4906 188.174 13.633 187.575 13.0336C186.996 12.4136 186.19 12.1036 185.157 12.1036C184.124 12.1036 183.307 12.4136 182.708 13.0336C182.129 13.633 181.84 14.4906 181.84 15.6066V24.9996H176.539V7.70162H181.84V9.87162C182.377 9.14829 183.08 8.57996 183.948 8.16662C184.816 7.73262 185.798 7.51562 186.893 7.51562C188.195 7.51562 189.352 7.79462 190.365 8.35262C191.398 8.91062 192.204 9.70629 192.783 10.7396C193.382 9.78896 194.199 9.01396 195.232 8.41462C196.265 7.81529 197.392 7.51562 198.611 7.51562Z" fill="white"/>
<path d="M172.732 7.70215V25.0001H167.431V22.6441C166.894 23.4088 166.16 24.0288 165.23 24.5042C164.321 24.9588 163.308 25.1861 162.192 25.1861C160.869 25.1861 159.702 24.8968 158.689 24.3181C157.676 23.7188 156.891 22.8611 156.333 21.7451C155.775 20.6291 155.496 19.3168 155.496 17.8082V7.70215H160.766V17.0951C160.766 18.2525 161.066 19.1515 161.665 19.7921C162.264 20.4328 163.07 20.7531 164.083 20.7531C165.116 20.7531 165.933 20.4328 166.532 19.7921C167.131 19.1515 167.431 18.2525 167.431 17.0951V7.70215H172.732Z" fill="white"/>
<path d="M145.401 25.2481C143.892 25.2481 142.549 24.9898 141.371 24.4731C140.193 23.9564 139.263 23.2538 138.581 22.3651C137.899 21.4558 137.516 20.4431 137.434 19.3271H142.673C142.735 19.9264 143.014 20.4121 143.51 20.7841C144.006 21.1561 144.615 21.3421 145.339 21.3421C146 21.3421 146.506 21.2181 146.858 20.9701C147.23 20.7014 147.416 20.3604 147.416 19.9471C147.416 19.4511 147.157 19.0894 146.641 18.8621C146.124 18.6141 145.287 18.3454 144.13 18.0561C142.89 17.7668 141.856 17.4671 141.03 17.1571C140.203 16.8264 139.49 16.3201 138.891 15.6381C138.291 14.9354 137.992 13.9951 137.992 12.8171C137.992 11.8251 138.26 10.9261 138.798 10.1201C139.356 9.29343 140.162 8.64244 141.216 8.1671C142.29 7.69177 143.561 7.4541 145.029 7.4541C147.199 7.4541 148.904 7.99144 150.144 9.0661C151.404 10.1408 152.128 11.5668 152.314 13.3441H147.416C147.333 12.7448 147.064 12.2694 146.61 11.9181C146.176 11.5668 145.597 11.3911 144.874 11.3911C144.254 11.3911 143.778 11.5151 143.448 11.7631C143.117 11.9904 142.952 12.3108 142.952 12.7241C142.952 13.2201 143.21 13.5921 143.727 13.8401C144.264 14.0881 145.091 14.3361 146.207 14.5841C147.488 14.9148 148.532 15.2454 149.338 15.5761C150.144 15.8861 150.846 16.4028 151.446 17.1261C152.066 17.8288 152.386 18.7794 152.407 19.9781C152.407 20.9908 152.117 21.9001 151.539 22.7061C150.981 23.4914 150.164 24.1114 149.09 24.5661C148.036 25.0208 146.806 25.2481 145.401 25.2481Z" fill="white"/>
<path d="M122.625 10.1511C123.142 9.3451 123.855 8.6941 124.764 8.1981C125.674 7.7021 126.738 7.4541 127.957 7.4541C129.383 7.4541 130.675 7.81577 131.832 8.5391C132.99 9.26244 133.899 10.2958 134.56 11.6391C135.242 12.9824 135.583 14.5428 135.583 16.3201C135.583 18.0974 135.242 19.6681 134.56 21.0321C133.899 22.3754 132.99 23.4191 131.832 24.1631C130.675 24.8864 129.383 25.2481 127.957 25.2481C126.759 25.2481 125.694 25.0001 124.764 24.5041C123.855 24.0081 123.142 23.3674 122.625 22.5821V33.2461H117.324V7.7021H122.625V10.1511ZM130.189 16.3201C130.189 14.9974 129.817 13.9641 129.073 13.2201C128.35 12.4554 127.451 12.0731 126.376 12.0731C125.322 12.0731 124.423 12.4554 123.679 13.2201C122.956 13.9848 122.594 15.0284 122.594 16.3511C122.594 17.6738 122.956 18.7174 123.679 19.4821C124.423 20.2468 125.322 20.6291 126.376 20.6291C127.43 20.6291 128.329 20.2468 129.073 19.4821C129.817 18.6968 130.189 17.6428 130.189 16.3201Z" fill="white"/>
<path d="M113.483 3.23828V25.0003H108.182V3.23828H113.483Z" fill="white"/>
<path d="M90.8689 7.51562C93.0182 7.51562 94.7232 8.16662 95.9839 9.46862C97.2652 10.7706 97.9059 12.579 97.9059 14.8936V24.9996H92.6359V15.6066C92.6359 14.4906 92.3362 13.633 91.7369 13.0336C91.1582 12.4136 90.3522 12.1036 89.3189 12.1036C88.2855 12.1036 87.4692 12.4136 86.8699 13.0336C86.2912 13.633 86.0019 14.4906 86.0019 15.6066V24.9996H80.7319V15.6066C80.7319 14.4906 80.4322 13.633 79.8329 13.0336C79.2542 12.4136 78.4482 12.1036 77.4149 12.1036C76.3815 12.1036 75.5652 12.4136 74.9659 13.0336C74.3872 13.633 74.0979 14.4906 74.0979 15.6066V24.9996H68.7969V7.70162H74.0979V9.87162C74.6352 9.14829 75.3379 8.57996 76.2059 8.16662C77.0739 7.73262 78.0555 7.51562 79.1509 7.51562C80.4529 7.51562 81.6102 7.79462 82.6229 8.35262C83.6562 8.91062 84.4622 9.70629 85.0409 10.7396C85.6402 9.78896 86.4565 9.01396 87.4899 8.41462C88.5232 7.81529 89.6495 7.51562 90.8689 7.51562Z" fill="white"/>
<path d="M65.9987 16.0721C65.9987 16.5681 65.9677 17.0848 65.9057 17.6221H53.9087C53.9913 18.6968 54.3323 19.5234 54.9317 20.1021C55.5517 20.6601 56.306 20.9391 57.1947 20.9391C58.5173 20.9391 59.437 20.3811 59.9537 19.2651H65.5957C65.3063 20.4018 64.7793 21.4248 64.0147 22.3341C63.2707 23.2434 62.3303 23.9564 61.1937 24.4731C60.057 24.9898 58.786 25.2481 57.3807 25.2481C55.686 25.2481 54.1773 24.8864 52.8547 24.1631C51.532 23.4398 50.4987 22.4064 49.7547 21.0631C49.0107 19.7198 48.6387 18.1491 48.6387 16.3511C48.6387 14.5531 49.0003 12.9824 49.7237 11.6391C50.4677 10.2958 51.501 9.26244 52.8237 8.5391C54.1463 7.81577 55.6653 7.4541 57.3807 7.4541C59.0547 7.4541 60.5427 7.80543 61.8447 8.5081C63.1467 9.21077 64.1593 10.2131 64.8827 11.5151C65.6267 12.8171 65.9987 14.3361 65.9987 16.0721ZM60.5737 14.6771C60.5737 13.7678 60.2637 13.0444 59.6437 12.5071C59.0237 11.9698 58.2487 11.7011 57.3187 11.7011C56.43 11.7011 55.6757 11.9594 55.0557 12.4761C54.4563 12.9928 54.0843 13.7264 53.9397 14.6771H60.5737Z" fill="white"/>
<path d="M41.7346 10.5846C42.3546 9.63396 43.1296 8.88996 44.0596 8.35262C44.9896 7.79462 46.0229 7.51562 47.1596 7.51562V13.1266H45.7026C44.3799 13.1266 43.3879 13.416 42.7266 13.9946C42.0653 14.5526 41.7346 15.5446 41.7346 16.9706V24.9996H36.4336V7.70162H41.7346V10.5846Z" fill="white"/>
<path d="M24.5686 25.2481C22.874 25.2481 21.3446 24.8864 19.9806 24.1631C18.6373 23.4398 17.573 22.4064 16.7876 21.0631C16.023 19.7198 15.6406 18.1491 15.6406 16.3511C15.6406 14.5738 16.0333 13.0134 16.8186 11.6701C17.604 10.3061 18.6786 9.26244 20.0426 8.5391C21.4066 7.81577 22.936 7.4541 24.6306 7.4541C26.3253 7.4541 27.8546 7.81577 29.2186 8.5391C30.5826 9.26244 31.6573 10.3061 32.4426 11.6701C33.228 13.0134 33.6206 14.5738 33.6206 16.3511C33.6206 18.1284 33.2176 19.6991 32.4116 21.0631C31.6263 22.4064 30.5413 23.4398 29.1566 24.1631C27.7926 24.8864 26.2633 25.2481 24.5686 25.2481ZM24.5686 20.6601C25.5813 20.6601 26.439 20.2881 27.1416 19.5441C27.865 18.8001 28.2266 17.7358 28.2266 16.3511C28.2266 14.9664 27.8753 13.9021 27.1726 13.1581C26.4906 12.4141 25.6433 12.0421 24.6306 12.0421C23.5973 12.0421 22.7396 12.4141 22.0576 13.1581C21.3756 13.8814 21.0346 14.9458 21.0346 16.3511C21.0346 17.7358 21.3653 18.8001 22.0266 19.5441C22.7086 20.2881 23.556 20.6601 24.5686 20.6601Z" fill="white"/>
<path d="M7.22288 20.9083H14.1669V25.0003H1.92188V3.23828H7.22288V20.9083Z" fill="white"/>
</svg>
